<?xml version="1.0" encoding="utf-8"?>
<!-- Generator: Adobe Illustrator 21.1.0, SVG Export Plug-In . SVG Version: 6.00 Build 0)  -->
<svg version="1.1" id="Layer_1" xmlns="http://www.w3.org/2000/svg" xmlns:xlink="http://www.w3.org/1999/xlink" x="0px" y="0px"
	 viewBox="0 0 97.2 97.2" style="enable-background:new 0 0 97.2 97.2;" xml:space="preserve">
<style type="text/css">
	.st0{fill:#0098FF;}
	.st1{fill:none;}
	.st2{fill:#FFFFFF;}
</style>
<path class="st0" d="M48.5,0L48.5,0c26.9,0,48.7,21.8,48.7,48.6l0,0c0,26.9-21.8,48.6-48.6,48.6l0,0C21.7,97.2,0,75.4,0,48.6l0,0
	C-0.1,21.8,21.7,0,48.5,0z"/>
<g>
	<path class="st1" d="M58.7,38.3v12.4h8c3.6,0,6.6-2.8,6.7-6.2c0-3.4-2.9-6.2-6.7-6.2H58.7z"/>
	<path class="st2" d="M76.8,36.1l-0.2-0.2c-2.7-2.6-6.4-4-10.3-4H53.1c-0.7,0-1.1,0-1.5,0.2c-0.5,0.3-0.6,0.7-0.6,1.3v33.1
		c0,1.1,0.8,1.8,1.8,1.8h4c1.1,0,1.8-0.8,1.8-1.8v-9h7.7c3.9,0,7.7-1.5,10.3-4l0.2-0.2c2.3-2.3,3.6-5.4,3.6-8.6S79.1,38.5,76.8,36.1
		z M73.4,44.5c-0.1,3.4-3.1,6.2-6.7,6.2h-8V38.3h8C70.4,38.3,73.4,41,73.4,44.5z"/>
	<path class="st2" d="M26.9,38.3h18.5c1.1,0,1.8-0.8,1.8-1.8v-3.2c0-1.1-0.8-1.8-1.8-1.8H21.2c-1.1,0-1.8,0.8-1.8,1.8v33.1
		c0,1.1,0.8,1.8,1.8,1.8h24.1c1.1,0,1.8-0.8,1.8-1.8v-3.1c0-1.1-0.8-1.8-1.8-1.8H26.8V50.8H43c1.1,0,1.8-0.8,1.8-1.8v-2.7
		c0-1.1-0.8-1.8-1.8-1.8H26.9V38.3z"/>
</g>
</svg>
